<svg width="26" height="26" viewBox="0 0 26 26" fill="none" xmlns="http://www.w3.org/2000/svg">
<path d="M22.1856 20.833L22.1857 20.8331C22.3285 20.9754 22.3805 21.1853 22.3195 21.3776C22.2586 21.5698 22.0959 21.7129 21.8965 21.747L21.8966 21.747L21.8796 21.6484L21.8964 21.747L22.1856 20.833ZM22.1856 20.833C20.1553 18.8153 19.1292 16.4316 19.1292 13.7446L19.1292 9.79263C19.1292 9.79253 19.1292 9.79243 19.1292 9.79233C19.1483 6.72933 17.0885 4.70046 15.3221 3.89304C14.8415 3.67327 14.3471 3.50161 13.845 3.37183V3.19734C13.845 1.9305 12.8145 0.9 11.5477 0.9C10.2808 0.9 9.25035 1.9305 9.25035 3.19734V3.41157C8.79995 3.53717 8.35682 3.69813 7.92593 3.89712C5.97553 4.79594 3.99417 6.96367 3.97629 9.78873V9.78937M22.1856 20.833L3.97629 9.78937M3.97629 9.78937V13.7446C3.97629 16.5258 2.99508 18.9089 1.05916 20.833L1.05908 20.8331M3.97629 9.78937L1.05908 20.8331M1.05908 20.8331C0.916203 20.9755 0.864416 21.1852 0.924811 21.3778C0.985311 21.5706 1.14886 21.7129 1.34768 21.7474L1.34775 21.7474M1.05908 20.8331L1.34775 21.7474M1.34775 21.7474L5.51874 22.4677L5.51876 22.4677M1.34775 21.7474L5.51876 22.4677M5.51876 22.4677C6.27724 22.5985 6.9774 22.7064 7.64406 22.7958L5.51876 22.4677ZM15.2102 21.7589C15.9359 21.6661 16.7043 21.5486 17.5426 21.404L20.7322 20.8536C18.9742 18.8034 18.0498 16.3642 18.0498 13.745V9.78981V9.78917C18.0649 7.40553 16.4663 5.60282 14.8733 4.87434C14.341 4.63118 13.7883 4.45325 13.2267 4.33514C13.2259 4.33518 13.2252 4.33521 13.2244 4.33523C13.2174 4.33547 13.2075 4.3352 13.1961 4.33276M15.2102 21.7589L13.2168 4.23493M15.2102 21.7589V21.7586L15.1976 21.7602C14.8768 21.8009 14.5647 21.8364 14.2593 21.8671L14.2593 21.867L14.2573 21.8673L14.2536 21.8676L14.2497 21.868L14.2497 21.868C13.9709 21.896 13.6981 21.9183 13.4279 21.9381L13.4275 21.9381C13.3933 21.9407 13.3597 21.9429 13.3255 21.9452C13.3088 21.9463 13.292 21.9474 13.2748 21.9486C13.041 21.9639 12.8099 21.9761 12.5801 21.9849M15.2102 21.7589L12.5801 21.9849M13.1961 4.33276C13.1955 4.33264 13.1949 4.3325 13.1943 4.33237L13.2168 4.23493M13.1961 4.33276C13.1963 4.3328 13.1965 4.33285 13.1967 4.33289L13.2168 4.23493M13.1961 4.33276C12.1145 4.11116 10.9763 4.12207 9.90756 4.36237L9.90524 4.3629L9.90523 4.36287C9.89924 4.36407 9.89411 4.36462 9.89066 4.36491L9.88786 4.36509M13.2168 4.23493C12.1212 4.01036 10.9685 4.02134 9.88562 4.26481C9.88342 4.26525 9.88111 4.26536 9.87881 4.26547C9.8765 4.26558 9.87419 4.26569 9.87199 4.26613L9.8943 4.36361C9.89215 4.3641 9.89001 4.36459 9.88786 4.36509M9.88786 4.36509C9.37206 4.48355 8.86535 4.65189 8.37706 4.87683C6.73128 5.63588 5.07 7.45247 5.05522 9.79233V13.7446C5.05522 16.4714 4.19972 18.8591 2.50936 20.8526L5.70215 21.4044L9.88786 4.36509ZM10.8094 22.091C10.761 22.0892 10.7118 22.087 10.6635 22.0848M10.8094 22.091C11.3556 22.109 11.8949 22.109 12.4416 22.0905C12.47 22.0897 12.4985 22.0885 12.527 22.0872C12.546 22.0864 12.565 22.0855 12.584 22.0848M10.8094 22.091L10.8127 21.991C11.3567 22.009 11.8937 22.009 12.4382 21.9906L12.4388 21.9906C12.4669 21.9898 12.4935 21.9886 12.521 21.9874C12.54 21.9865 12.5595 21.9856 12.5801 21.9849M10.8094 22.091L10.813 21.991C10.7652 21.9893 10.7164 21.9871 10.668 21.9849L10.6673 21.9849C10.4406 21.9761 10.2121 21.9643 9.98146 21.949L9.98127 21.949C9.92672 21.9455 9.87259 21.942 9.81809 21.938L9.81806 21.938C9.55521 21.9192 9.28933 21.8969 9.01734 21.8701L9.01662 21.8701L8.98936 21.8675C8.98931 21.8675 8.98925 21.8675 8.9892 21.8675C8.68613 21.8373 8.37637 21.8018 8.05768 21.7615L8.05778 21.7607H8.04747C7.31813 21.6683 6.54601 21.5497 5.70221 21.4044L12.5801 21.9849M10.6635 22.0848L14.2693 21.9666C14.2662 21.967 14.2627 21.967 14.2596 21.9675C13.9797 21.9956 13.7059 22.018 13.4352 22.0378C13.3838 22.0417 13.3328 22.0448 13.2814 22.0483C13.0467 22.0637 12.8147 22.076 12.584 22.0848M10.6635 22.0848C10.4358 22.076 10.2064 22.0642 9.97483 22.0488L10.6635 22.0848ZM12.584 22.0848L12.5801 21.9849M12.584 22.0848L12.5803 21.9849C12.5802 21.9849 12.5802 21.9849 12.5801 21.9849M17.7261 22.4672L17.709 22.3687L17.7261 22.4672C17.7261 22.4672 17.7261 22.4672 17.7261 22.4672ZM15.6113 22.7941C15.6195 22.7785 15.6275 22.7629 15.6355 22.7472L15.5464 22.7018L15.5596 22.801C15.5768 22.7987 15.5941 22.7964 15.6113 22.7941ZM15.2102 21.8594V21.8387L15.2102 21.8387L15.2102 21.8594ZM12.7652 3.16263C11.9555 3.05702 11.136 3.06197 10.3289 3.1813C10.3376 2.51701 10.881 1.97894 11.5472 1.97894C12.2073 1.97894 12.7467 2.50695 12.7652 3.16263ZM11.6277 24.1918C10.6252 24.1918 9.68174 23.729 9.03181 22.9578C9.92929 23.0437 10.7761 23.087 11.6228 23.087C12.473 23.087 13.323 23.0437 14.2243 22.9566C13.5739 23.7287 12.6301 24.1918 11.6277 24.1918Z" fill="#2268A7" stroke="#2268A7" stroke-width="0.2"/>
<path d="M6.17369 9.786L6.17369 9.7859C6.18723 7.67262 7.86501 6.34475 8.84578 5.89257C10.564 5.10021 12.6797 5.10124 14.4089 5.89155C14.6799 6.01519 14.799 6.3352 14.675 6.60638L14.6749 6.60645C14.5509 6.87722 14.2305 6.99646 13.9597 6.87239L6.17369 9.786ZM6.17369 9.786C6.17207 10.0838 6.41163 10.3265 6.7098 10.3286H6.71052H6.71052H6.71053H6.71054H6.71054H6.71055H6.71055H6.71056H6.71056H6.71057H6.71057H6.71058H6.71058H6.71059H6.71059H6.7106H6.7106H6.71061H6.71061H6.71062H6.71062H6.71063H6.71063H6.71064H6.71064H6.71065H6.71065H6.71066H6.71066H6.71067H6.71067H6.71068H6.71068H6.71069H6.71069H6.7107H6.71071H6.71071H6.71072H6.71072H6.71073H6.71073H6.71074H6.71074H6.71075H6.71075H6.71076H6.71076H6.71077H6.71077H6.71078H6.71078H6.71079H6.71079H6.7108H6.7108H6.71081H6.71081H6.71082H6.71082H6.71083H6.71083H6.71084H6.71084H6.71085H6.71085H6.71086H6.71086H6.71087H6.71088H6.71088H6.71089H6.71089H6.7109H6.7109H6.71091H6.71091H6.71092H6.71092H6.71093H6.71093H6.71094H6.71094H6.71095H6.71095H6.71096H6.71096H6.71097H6.71097H6.71098H6.71098H6.71099H6.71099H6.711H6.711H6.71101H6.71101H6.71102H6.71102H6.71103H6.71103H6.71104H6.71104H6.71105H6.71106H6.71106H6.71107H6.71107H6.71108H6.71108H6.71109H6.71109H6.7111H6.7111H6.71111H6.71111H6.71112H6.71112H6.71113H6.71113H6.71114H6.71114H6.71115H6.71115H6.71116H6.71116H6.71117H6.71117H6.71118H6.71118H6.71119H6.71119H6.7112H6.7112H6.71121H6.71121H6.71122H6.71123H6.71123H6.71124H6.71124H6.71125H6.71125H6.71126H6.71126H6.71127H6.71127H6.71128H6.71128H6.71129H6.71129H6.7113H6.7113H6.71131H6.71131H6.71132H6.71132H6.71133H6.71133H6.71134H6.71134H6.71135H6.71135H6.71136H6.71136H6.71137H6.71137H6.71138H6.71138H6.71139H6.7114H6.7114H6.71141H6.71141H6.71142H6.71142H6.71143H6.71143H6.71144H6.71144H6.71145H6.71145H6.71146H6.71146H6.71147H6.71147H6.71148H6.71148H6.71149H6.71149H6.7115H6.7115H6.71151H6.71151H6.71152H6.71152H6.71153H6.71153H6.71154H6.71154H6.71155H6.71155H6.71156H6.71157H6.71157H6.71158H6.71158H6.71159H6.71159H6.7116H6.7116H6.71161H6.71161H6.71162H6.71162H6.71163H6.71163H6.71164H6.71164H6.71165H6.71165H6.71166H6.71166H6.71167H6.71167H6.71168H6.71168H6.71169H6.71169H6.7117H6.7117H6.71171H6.71171H6.71172H6.71172H6.71173H6.71174H6.71174H6.71175H6.71175H6.71176H6.71176H6.71177H6.71177H6.71178H6.71178H6.71179H6.71179H6.7118H6.7118H6.71181H6.71181H6.71182H6.71182H6.71183H6.71183H6.71184H6.71184H6.71185H6.71185H6.71186H6.71186H6.71187H6.71187H6.71188H6.71188H6.71189H6.71189H6.7119H6.71191H6.71191H6.71192H6.71192H6.71193H6.71193H6.71194H6.71194H6.71195H6.71195H6.71196H6.71196H6.71197H6.71197H6.71198H6.71198H6.71199H6.71199H6.712H6.712H6.71201H6.71201H6.71202H6.71202H6.71203H6.71203H6.71204H6.71204H6.71205H6.71205H6.71206H6.71206H6.71207H6.71208H6.71208H6.71209H6.71209H6.7121H6.7121H6.71211H6.71211H6.71212H6.71212H6.71213H6.71213H6.71214H6.71214H6.71215H6.71215H6.71216H6.71216H6.71217H6.71217H6.71218H6.71218H6.71219H6.71219H6.7122H6.7122H6.71221H6.71221H6.71222H6.71222H6.71223H6.71223H6.71224H6.71225H6.71225H6.71226H6.71226H6.71227H6.71227H6.71228H6.71228H6.71229H6.71229H6.7123H6.7123H6.71231H6.71231H6.71232H6.71232H6.71233H6.71233H6.71234H6.71234H6.71235H6.71235H6.71236H6.71236H6.71237H6.71237H6.71238H6.71238H6.71239H6.71239H6.7124H6.7124H6.71241H6.71242H6.71242H6.71243H6.71243H6.71244H6.71244H6.71245H6.71245H6.71246H6.71246H6.71247H6.71247H6.71248H6.71248H6.71249H6.71249H6.7125H6.7125H6.71251H6.71251H6.71252H6.71252H6.71253H6.71253H6.71254H6.71254H6.71255H6.71255H6.71256H6.71256H6.71257H6.71257H6.71258H6.71259H6.71259H6.7126H6.7126H6.71261H6.71261H6.71262H6.71262H6.71263H6.71263H6.71264H6.71264H6.71265H6.71265H6.71266H6.71266H6.71267H6.71267H6.71268H6.71268H6.71269H6.71269H6.7127H6.7127H6.71271H6.71271H6.71272H6.71272H6.71273H6.71273H6.71274H6.71274H6.71275H6.71275H6.71276H6.71277H6.71277H6.71278H6.71278H6.71279H6.71279H6.7128H6.7128H6.71281H6.71281H6.71282H6.71282H6.71283H6.71283H6.71284H6.71284H6.71285H6.71285H6.71286H6.71286H6.71287H6.71287H6.71288H6.71288H6.71289H6.71289H6.7129H6.7129H6.71291H6.71291H6.71292H6.71292H6.71293H6.71294H6.71294H6.71295H6.71295H6.71296H6.71296H6.71297H6.71297H6.71298H6.71298H6.71299H6.71299H6.713H6.713H6.71301H6.71301H6.71302H6.71302H6.71303H6.71303H6.71304H6.71304H6.71305H6.71305H6.71306H6.71306H6.71307H6.71307H6.71308H6.71308H6.71309H6.71309H6.7131H6.71311H6.71311H6.71312H6.71312H6.71313H6.71313H6.71314H6.71314H6.71315H6.71315H6.71316C7.00921 10.3286 7.25096 10.0898 7.25262 9.79244C7.26237 8.23358 8.53612 7.22357 9.29738 6.87225C10.7345 6.20914 12.5124 6.2107 13.9596 6.87237L6.17369 9.786Z" fill="#2268A7" stroke="#2268A7" stroke-width="0.2"/>
<circle cx="19" cy="8" r="7" fill="#F8971C"/>
<path d="M19.7451 11H18.5635V5.29199L16.8203 5.8877V4.88672L19.5938 3.86621H19.7451V11Z" fill="white"/>
</svg>
